<?xml version="1.0" encoding="utf-8"?>
<svg viewBox="0 0 116 116" xmlns="http://www.w3.org/2000/svg">
  <path d="M 116 58 C 116 90.033 90.033 116 58 116 C 25.967 116 0 90.033 0 58 C 0 25.967 25.967 0 58 0 C 90.033 0 116 25.967 116 58 Z" style="fill: rgb(204, 204, 204);"/>
  <path d="M 112 58 C 112 87.823 87.823 112 58 112 C 28.177 112 4 87.823 4 58 C 4 28.177 28.177 4 58 4 C 87.823 4 112 28.177 112 58 Z" style="fill: rgb(242, 242, 242);"/>
  <path d="M 100.18 58 C 100.18 81.295 81.295 100.18 58 100.18 C 34.705 100.18 15.82 81.295 15.82 58 C 15.82 34.705 34.705 15.82 58 15.82 C 81.295 15.82 100.18 34.705 100.18 58 Z" style="fill: rgb(255, 255, 255);"/>
  <path d="M 54.38 20.78 C 43.63 21.819 33.857 27.461 27.58 36.25 L 54.38 20.78 Z" style="fill: rgb(61, 180, 209);"/>
  <path d="M 92.05 42.51 L 92.05 73.51 C 96.509 63.658 96.509 52.362 92.05 42.51 Z" style="fill: rgb(61, 180, 209);"/>
  <path d="M 88.42 36.25 C 82.143 27.461 72.37 21.819 61.62 20.78 L 88.42 36.25 Z" style="fill: rgb(61, 180, 209);"/>
  <path d="M 24 42.51 C 19.541 52.362 19.541 63.658 24 73.51 L 24 42.51 Z" style="fill: rgb(61, 180, 209);"/>
  <path d="M 61.62 95.22 C 72.37 94.181 82.143 88.539 88.42 79.75 L 61.62 95.22 Z" style="fill: rgb(61, 180, 209);"/>
  <path d="M 27.58 79.75 C 33.857 88.539 43.63 94.181 54.38 95.22 L 27.58 79.75 Z" style="fill: rgb(61, 180, 209);"/>
  <path d="M 58 101.24 C 34.119 101.24 14.76 81.881 14.76 58 C 14.76 34.119 34.119 14.76 58 14.76 C 81.881 14.76 101.24 34.119 101.24 58 C 101.212 81.869 81.869 101.212 58 101.24 Z M 58 17.91 C 35.859 17.91 17.91 35.859 17.91 58 C 17.91 80.141 35.859 98.09 58 98.09 C 80.141 98.09 98.09 80.141 98.09 58 C 98.062 35.87 80.13 17.938 58 17.91 Z" style="fill: rgb(61, 180, 209);"/>
  <path d="M 88.72 70.5 L 88.72 40.26 L 73.33 31.37 C 73.248 30.992 69 28.89 69 28.89 L 62.51 25.14 L 64.67 28.89 L 60.888 28.872 L 58 23.89 L 55.13 28.89 L 51.3 28.89 L 53.46 25.14 L 47 28.89 C 47 28.89 42.752 30.992 42.67 31.37 L 27.28 40.26 L 27.28 70.5 L 51.302 28.893 L 55.137 28.881 L 28.49 75 L 87.526 74.982 L 84.204 78.346 L 31.81 78.32 L 58 93.48 L 84.19 78.36 L 87.51 75 L 60.88 28.863 L 64.691 28.892 L 88.72 70.5 Z" style="fill: rgb(61, 180, 209);"/>
  <path d="M 58 1.48 C 77.67 1.48 95.17 11.72 106.43 26.1 C 95.699 9.816 77.502 0.014 58 0.014 C 38.498 0.014 20.301 9.816 9.57 26.1 C 20.83 11.72 38.33 1.48 58 1.48 Z" style="fill: rgb(156, 156, 156);"/>
</svg>